<?xml version="1.0" encoding="UTF-8"?>
<svg id="Ebene_2" data-name="Ebene 2" xmlns="http://www.w3.org/2000/svg" viewBox="0 0 209.17 57.24">
  <defs>
    <style>
      .cls-1 {
        fill: #1c2f76;
      }
    </style>
  </defs>
  <g id="Ebene_1-2" data-name="Ebene 1">
    <path class="cls-1" d="m11.46,17.17V.79c0-.5-.21-.7-.7-.7h-3.13c-.26,0-.47.18-.47.44v.44c0,.26.21.44.47.44h2.11v6.42c-.85-1.32-2.31-1.99-4.22-1.99-3.28,0-5.51,1.9-5.51,5.45v4.19c0,3.54,2.23,5.42,5.57,5.42,2.29,0,3.93-.91,4.72-2.67l2.2,2.2c.29.29.64.35.94.06l.21-.21c.29-.29.26-.67-.03-.97l-2.14-2.14Zm-1.73-1.64c0,2.64-1.41,4.01-3.98,4.01s-3.98-1.38-3.98-4.01v-4.34c0-2.64,1.41-3.98,3.98-3.98s3.98,1.35,3.98,3.98v4.34ZM18.19,2.4V.88c0-.56.32-.88.85-.88h.38c.53,0,.85.32.85.88v1.52c0,.56-.32.88-.85.88h-.38c-.53,0-.85-.32-.85-.88Zm-2.31,17.72v-.44c0-.26.21-.44.47-.44h2.17V7.47h-2.17c-.26,0-.47-.18-.47-.44v-.44c0-.26.21-.44.47-.44h3.19c.5,0,.7.21.7.7v12.39h2.17c.29,0,.5.18.5.44v.44c0,.26-.21.44-.5.44h-6.06c-.26,0-.47-.18-.47-.44Zm20.89-3.43v-.23c0-.23-.12-.35-.35-.35h-.94c-.23,0-.35.12-.35.35v.21c0,1.76-1.03,2.9-3.81,2.9s-4.13-1.29-4.13-3.87v-1.79h9.02c.47,0,.7-.21.7-.7v-2.14c0-3.49-2.14-5.24-5.71-5.24s-5.74,1.82-5.74,5.33v4.45c0,3.46,2.14,5.27,5.83,5.27s5.48-1.58,5.48-4.19Zm-9.58-5.65c0-2.61,1.46-3.87,4.01-3.87s4.04,1.23,4.04,3.81v1.64h-8.06v-1.58ZM5.74,29.77c-3.52,0-5.74,1.82-5.74,5.33v4.45c0,3.46,2.14,5.27,5.83,5.27s5.48-1.58,5.48-4.19v-.23c0-.23-.12-.35-.35-.35h-.94c-.23,0-.35.12-.35.35v.21c0,1.76-1.03,2.9-3.81,2.9s-4.13-1.29-4.13-3.87v-1.79h9.02c.47,0,.7-.21.7-.7v-2.14c0-3.49-2.14-5.24-5.71-5.24Zm4.04,6.8H1.73v-1.58c0-2.61,1.46-3.87,4.01-3.87s4.04,1.23,4.04,3.81v1.64Zm20.59,7.09v.44c0,.26-.21.44-.5.44h-3.22c-.47,0-.7-.23-.7-.73v-8.67c0-2.49-1.29-3.96-3.75-3.96s-3.78,1.35-3.78,3.96v8.09h2.08c.29,0,.5.18.5.44v.44c0,.26-.21.44-.5.44h-5.92c-.29,0-.47-.18-.47-.44v-.44c0-.26.18-.44.47-.44h2.11v-9.73l-2.14-2.14c-.29-.29-.32-.64-.03-.94l.18-.21c.29-.29.67-.26.97.03l2.2,2.2c.76-1.76,2.37-2.67,4.51-2.67,3.19,0,5.3,1.9,5.3,5.36v8.09h2.2c.29,0,.5.18.5.44Zm8-13.89c-3.52,0-5.74,1.82-5.74,5.33v4.45c0,3.46,2.14,5.27,5.83,5.27s5.48-1.58,5.48-4.19v-.23c0-.23-.12-.35-.35-.35h-.94c-.23,0-.35.12-.35.35v.21c0,1.76-1.03,2.9-3.81,2.9s-4.13-1.29-4.13-3.87v-1.79h9.02c.47,0,.7-.21.7-.7v-2.14c0-3.49-2.14-5.24-5.71-5.24Zm4.04,6.8h-8.06v-1.58c0-2.61,1.46-3.87,4.01-3.87s4.04,1.23,4.04,3.81v1.64Zm13.97-6.01v.15c0,.44-.32.7-.79.7h-.85c-2.31,0-3.69,1.38-3.69,3.98v7.82h2.26c.26,0,.47.18.47.44v.44c0,.26-.21.44-.47.44h-6.09c-.29,0-.47-.18-.47-.44v-.44c0-.26.18-.44.47-.44h2.11v-9.73l-2.14-2.14c-.29-.29-.32-.64-.03-.94l.18-.21c.29-.29.67-.26.97.03l2.26,2.26c.73-1.73,2.17-2.67,4.16-2.67h.79c.59,0,.88.26.88.73Zm12.6-1.64l-2.05,1.79c-.88-.59-2.05-.94-3.52-.94-3.6,0-5.48,2.08-5.48,4.66v.73c0,1.82,1.05,3.46,3.11,4.16-.97.41-1.41,1.2-1.41,2.23v.03c0,.76.29,1.35.85,1.79-2.05.47-2.99,1.7-2.99,3.4v.26c0,2.34,1.76,3.66,6.15,3.66s6.3-1.58,6.3-4.13v-.32c0-2.37-1.55-3.19-4.31-3.4l-2.64-.21c-1.17-.09-1.93-.5-1.93-1.35v-.06c0-.97.85-1.46,2.08-1.46h.26c3.63,0,5.45-2.14,5.45-4.6v-.73c0-1.05-.26-1.96-.88-2.72l1.96-1.7c.32-.26.41-.7.09-1.05-.29-.35-.7-.35-1.05-.03Zm-6.3,15.29h.26l2.46.21c2.11.18,2.9.62,2.9,2.05v.26c0,1.55-1.2,2.61-4.66,2.61s-4.66-.88-4.66-2.4v-.29c0-1.52.97-2.43,3.69-2.43Zm4.48-8.99c0,1.73-1.14,3.28-3.75,3.28s-3.75-1.55-3.75-3.28v-.82c0-1.79,1.14-3.31,3.75-3.31s3.75,1.52,3.75,3.31v.82Zm6.71-8.88v-1.52c0-.56.32-.88.85-.88h.38c.53,0,.85.32.85.88v1.52c0,.56-.32.88-.85.88h-.38c-.53,0-.85-.32-.85-.88Zm4.72,17.29v.44c0,.26-.21.44-.5.44h-6.06c-.26,0-.47-.18-.47-.44v-.44c0-.26.21-.44.47-.44h2.17v-11.78h-2.17c-.26,0-.47-.18-.47-.44v-.44c0-.26.21-.44.47-.44h3.19c.5,0,.7.21.7.7v12.39h2.17c.29,0,.5.18.5.44Zm13.86-3.22c0-.23-.12-.35-.35-.35h-.94c-.23,0-.35.12-.35.35v.21c0,1.76-1.03,2.9-3.81,2.9s-4.13-1.29-4.13-3.87v-1.79h9.02c.47,0,.7-.21.7-.7v-2.14c0-3.49-2.14-5.24-5.71-5.24s-5.74,1.82-5.74,5.33v4.45c0,3.46,2.14,5.27,5.83,5.27s5.48-1.58,5.48-4.19v-.23Zm-9.58-5.42c0-2.61,1.46-3.87,4.01-3.87s4.04,1.23,4.04,3.81v1.64h-8.06v-1.58Zm62.92-4.45v.44c0,.26-.21.44-.47.44h-1.52l-3.16,12.6c-.12.47-.35.64-.79.64h-.97c-.44,0-.67-.18-.82-.64l-3.11-10.72-3.08,10.72c-.15.47-.38.64-.82.64h-1c-.44,0-.7-.18-.82-.64l-3.13-12.6h-1.52c-.29,0-.47-.18-.47-.44v-.44c0-.26.18-.44.47-.44h5.33c.29,0,.47.18.47.44v.41c0,.26-.18.47-.47.47h-2.11l2.9,11.92,3.37-11.72c.18-.59.44-.82.88-.82h.23c.44,0,.7.23.88.82l3.4,11.72,2.87-11.92h-2.08c-.29,0-.5-.21-.5-.47v-.41c0-.26.21-.44.5-.44h5.07c.26,0,.47.18.47.44Zm7.56-.76c-3.52,0-5.74,1.82-5.74,5.33v4.45c0,3.46,2.14,5.27,5.83,5.27s5.48-1.58,5.48-4.19v-.23c0-.23-.12-.35-.35-.35h-.94c-.23,0-.35.12-.35.35v.21c0,1.76-1.03,2.9-3.81,2.9s-4.13-1.29-4.13-3.87v-1.79h9.02c.47,0,.7-.21.7-.7v-2.14c0-3.49-2.14-5.24-5.71-5.24Zm4.04,6.8h-8.06v-1.58c0-2.61,1.46-3.87,4.01-3.87s4.04,1.23,4.04,3.81v1.64Zm6.76-10.22v-1.52c0-.56.32-.88.85-.88h.38c.53,0,.85.32.85.88v1.52c0,.56-.32.88-.85.88h-.38c-.53,0-.85-.32-.85-.88Zm4.72,17.29v.44c0,.26-.21.44-.5.44h-6.06c-.26,0-.47-.18-.47-.44v-.44c0-.26.21-.44.47-.44h2.17v-11.78h-2.17c-.26,0-.47-.18-.47-.44v-.44c0-.26.21-.44.47-.44h3.19c.5,0,.7.21.7.7v12.39h2.17c.29,0,.5.18.5.44Zm13.3-3.31v.29c0,2.55-1.79,4.22-5.48,4.22s-5.39-1.41-5.39-3.84v-.59c0-.23.15-.38.38-.38h.85c.23,0,.38.12.38.35v.62c0,1.67,1.26,2.49,3.78,2.49s3.84-1.03,3.84-2.7v-.32c0-1.58-1-1.96-2.52-2.2l-2.84-.41c-2.58-.38-3.81-1.32-3.81-3.57v-.29c0-2.52,1.7-4.22,5.3-4.22s5.21,1.44,5.21,3.81v.41c0,.23-.15.41-.38.41h-.88c-.23,0-.35-.15-.35-.38v-.41c0-1.64-1.23-2.49-3.6-2.49-2.49,0-3.66,1.05-3.66,2.7v.29c0,1.58.97,1.96,2.52,2.2l2.81.41c2.61.38,3.84,1.32,3.84,3.6Zm8.99-10.55c-3.52,0-5.74,1.82-5.74,5.33v4.45c0,3.46,2.14,5.27,5.83,5.27s5.48-1.58,5.48-4.19v-.23c0-.23-.12-.35-.35-.35h-.94c-.23,0-.35.12-.35.35v.21c0,1.76-1.03,2.9-3.81,2.9s-4.13-1.29-4.13-3.87v-1.79h9.02c.47,0,.7-.21.7-.7v-2.14c0-3.49-2.14-5.24-5.71-5.24Zm4.04,6.8h-8.06v-1.58c0-2.61,1.46-3.87,4.01-3.87s4.04,1.23,4.04,3.81v1.64Zm13.97-6.01v.15c0,.44-.32.7-.79.7h-.85c-2.31,0-3.69,1.38-3.69,3.98v7.82h2.26c.26,0,.47.18.47.44v.44c0,.26-.21.44-.47.44h-6.09c-.29,0-.47-.18-.47-.44v-.44c0-.26.18-.44.47-.44h2.11v-9.73l-2.14-2.14c-.29-.29-.32-.64-.03-.94l.18-.21c.29-.29.67-.26.97.03l2.26,2.26c.73-1.73,2.17-2.67,4.16-2.67h.79c.59,0,.88.26.88.73Zm-110.58,11.8l8.09-5.07-8.09-5.07c-.38-.23-.53-.64-.29-1.05.23-.38.67-.44,1.05-.21l8.7,5.48c.38.23.56.47.56.82v.09c0,.32-.18.56-.56.79l-8.7,5.51c-.38.23-.82.15-1.05-.23s-.09-.82.29-1.05Zm9.08,1.05c-.23-.38-.09-.82.29-1.05l8.09-5.07-8.09-5.07c-.38-.23-.53-.64-.29-1.05.23-.38.67-.44,1.05-.21l8.7,5.48c.38.23.56.47.56.82v.09c0,.32-.18.56-.56.79l-8.7,5.51c-.38.23-.82.15-1.05-.23Zm-16.07-16.98c-.31-.23-.38-.68-.15-.99,3.81-5.13,9.64-8.08,16-8.08s12.19,2.94,16,8.08c.23.31.17.76-.15.99-.13.09-.27.14-.42.14-.22,0-.43-.1-.57-.29-3.54-4.77-8.96-7.5-14.86-7.5s-11.32,2.74-14.86,7.5c-.23.32-.68.38-.99.15Zm31.71,21.74c.31.23.38.68.15.99-3.81,5.13-9.64,8.08-16,8.08s-12.19-2.94-16-8.08c-.23-.31-.17-.76.15-.99.31-.23.76-.17.99.15,3.54,4.77,8.96,7.5,14.86,7.5s11.32-2.74,14.86-7.5c.23-.31.68-.38.99-.15Z"/>
  </g>
</svg>