<?xml version="1.0" encoding="UTF-8"?>
<svg id="Ebene_2" data-name="Ebene 2" xmlns="http://www.w3.org/2000/svg" viewBox="0 0 32.85 40.45">
  <defs>
    <style>
      .cls-1 {
        fill: #1c2f76;
      }
    </style>
  </defs>
  <g id="Ebene_1-2" data-name="Ebene 1">
    <path class="cls-1" d="m7.79,24.61l7.76-4.83-7.76-4.8c-.5-.32-.67-.91-.32-1.44.32-.53.88-.67,1.44-.32l8.53,5.39c.56.35.82.64.82,1.14v.06c0,.53-.26.79-.82,1.14l-8.53,5.39c-.56.35-1.11.23-1.44-.29-.35-.56-.18-1.11.32-1.44Zm9.05,1.44c-.35-.56-.18-1.11.32-1.44l7.76-4.83-7.76-4.8c-.5-.32-.67-.91-.32-1.44.32-.53.88-.67,1.44-.32l8.53,5.39c.56.35.82.64.82,1.14v.06c0,.53-.26.79-.82,1.14l-8.53,5.39c-.56.35-1.11.23-1.44-.29ZM.4,9.58c-.44-.33-.53-.95-.21-1.39C4.06,2.99,9.98,0,16.42,0s12.36,2.99,16.23,8.19c.33.44.23,1.06-.21,1.39-.18.13-.38.2-.59.2-.3,0-.6-.14-.8-.4-3.49-4.7-8.82-7.39-14.64-7.39S5.28,4.68,1.79,9.37c-.33.44-.95.53-1.39.21Zm32.05,21.29c.44.33.53.95.21,1.39-3.87,5.21-9.78,8.19-16.23,8.19S4.06,37.46.2,32.26c-.33-.44-.23-1.06.21-1.39.44-.33,1.06-.23,1.39.21,3.49,4.7,8.82,7.39,14.64,7.39s11.15-2.69,14.64-7.39c.33-.44.95-.53,1.39-.21Z"/>
  </g>
</svg>