<?xml version="1.0" encoding="UTF-8"?>
<svg id="Ebene_2" data-name="Ebene 2" xmlns="http://www.w3.org/2000/svg" viewBox="0 0 32.28 39.88">
  <defs>
    <style>
      .cls-1 {
        fill: #1c2f76;
      }
    </style>
  </defs>
  <g id="Ebene_1-2" data-name="Ebene 1">
    <path class="cls-1" d="m7.28,25l8.09-5.07-8.09-5.07c-.38-.23-.53-.64-.29-1.05.23-.38.67-.44,1.05-.21l8.7,5.48c.38.23.56.47.56.82v.09c0,.32-.18.56-.56.79l-8.7,5.51c-.38.23-.82.15-1.05-.23s-.09-.82.29-1.05Zm9.08,1.05c-.23-.38-.09-.82.29-1.05l8.09-5.07-8.09-5.07c-.38-.23-.53-.64-.29-1.05.23-.38.67-.44,1.05-.21l8.7,5.48c.38.23.56.47.56.82v.09c0,.32-.18.56-.56.79l-8.7,5.51c-.38.23-.82.15-1.05-.23ZM.29,9.07c-.31-.23-.38-.68-.15-.99C3.95,2.94,9.78,0,16.14,0s12.19,2.94,16,8.08c.23.31.17.76-.15.99-.13.09-.27.14-.42.14-.22,0-.43-.1-.57-.29-3.54-4.77-8.96-7.5-14.86-7.5S4.82,4.15,1.28,8.92c-.23.32-.68.38-.99.15Zm31.71,21.74c.31.23.38.68.15.99-3.81,5.13-9.64,8.08-16,8.08S3.95,36.94.14,31.8c-.23-.31-.17-.76.15-.99.31-.23.76-.17.99.15,3.54,4.77,8.96,7.5,14.86,7.5s11.32-2.74,14.86-7.5c.23-.31.68-.38.99-.15Z"/>
  </g>
</svg>